<?xml version="1.0" standalone="no"?>
<!DOCTYPE svg PUBLIC "-//W3C//DTD SVG 20010904//EN"
 "http://www.w3.org/TR/2001/REC-SVG-20010904/DTD/svg10.dtd">
<svg version="1.0" xmlns="http://www.w3.org/2000/svg"
 width="1280.000000pt" height="1273.000000pt" viewBox="0 0 1280.000000 1273.000000"
 preserveAspectRatio="xMidYMid meet">
<metadata>
Created by potrace 1.16, written by Peter Selinger 2001-2019
</metadata>
<g transform="translate(0.000000,1273.000000) scale(0.100000,-0.100000)"
fill="#000000" stroke="none">
<path d="M6055 11453 c-1009 -60 -1933 -395 -2730 -988 -372 -276 -746 -651
-1020 -1020 -572 -772 -902 -1661 -976 -2628 -17 -229 -7 -724 20 -932 45
-345 93 -575 188 -890 258 -852 772 -1657 1443 -2256 1066 -951 2481 -1403
3900 -1243 1361 153 2615 871 3437 1969 173 231 306 443 438 698 557 1075 704
2302 419 3487 -61 252 -195 642 -297 860 -19 41 -47 102 -62 135 -79 170 -262
481 -398 675 -825 1179 -2124 1952 -3547 2109 -239 27 -599 37 -815 24z m680
-493 c291 -28 664 -104 913 -185 58 -19 110 -35 114 -35 5 0 77 -27 161 -59
528 -204 961 -466 1385 -839 153 -134 303 -285 297 -299 -2 -8 -1 -12 4 -8 18
11 237 -246 371 -435 110 -157 133 -191 196 -295 212 -350 382 -739 479 -1090
15 -55 33 -120 41 -145 22 -71 74 -323 74 -358 0 -8 -19 -1 -52 18 -29 17 -52
35 -50 41 1 6 -2 8 -8 4 -8 -5 -154 79 -345 200 -27 17 -95 59 -150 92 -55 33
-172 105 -260 158 -88 54 -175 106 -193 116 -18 9 -38 22 -45 27 -13 10 -396
244 -487 297 -30 18 -54 37 -53 43 2 6 -3 9 -10 7 -6 -3 -50 17 -95 44 l-84
49 -116 -57 c-65 -32 -233 -115 -374 -185 l-257 -129 -49 32 c-27 17 -125 87
-218 156 -93 69 -238 176 -322 238 -223 163 -253 188 -245 199 3 7 1 8 -6 4
-9 -6 -80 38 -147 93 -5 4 -55 41 -110 82 -54 40 -103 77 -109 82 -50 40 -247
177 -257 177 -6 0 -41 -28 -77 -62 -37 -35 -91 -85 -121 -113 -78 -70 -378
-353 -485 -456 -49 -48 -126 -121 -170 -163 l-80 -76 -271 1 -272 1 -53 -30
c-30 -16 -106 -57 -169 -90 -63 -34 -153 -82 -200 -107 -47 -25 -145 -75 -218
-111 -127 -62 -135 -65 -175 -55 -42 9 -334 105 -372 121 -11 5 -81 28 -155
50 -74 23 -162 50 -194 61 -33 10 -65 19 -73 19 -11 0 -1109 -545 -1665 -827
l-137 -70 5 31 c3 17 8 42 11 56 4 14 6 28 5 32 -2 9 41 218 65 318 33 137
135 467 163 525 5 11 23 56 40 100 17 44 45 112 63 150 42 94 205 412 227 444
9 14 44 69 77 122 62 97 210 312 235 339 8 8 32 38 53 65 195 247 424 479 685
690 558 452 1171 747 1888 909 59 13 125 27 147 30 22 3 75 12 117 20 76 15
340 42 473 50 115 6 522 -3 640 -14z m97 -2412 c79 -58 183 -137 279 -213 21
-16 66 -52 101 -80 35 -27 99 -79 143 -115 44 -36 98 -78 120 -95 22 -16 63
-48 90 -72 28 -23 94 -78 148 -122 110 -90 113 -82 -38 -106 -401 -63 -526
-88 -553 -109 -91 -72 -219 -156 -230 -151 -7 2 -11 1 -8 -4 3 -5 -71 -62
-165 -127 -269 -187 -381 -278 -323 -262 147 41 558 169 754 235 43 14 244 75
285 86 11 3 46 15 78 27 l59 21 65 -36 c37 -20 96 -55 132 -79 64 -41 108 -68
274 -172 179 -111 270 -164 276 -159 6 7 -21 87 -55 160 -12 27 -56 129 -98
225 -85 200 -89 171 30 245 75 47 282 176 306 190 9 6 52 32 95 59 43 27 125
78 183 114 l105 64 50 -26 c62 -33 432 -250 580 -341 223 -138 285 -180 290
-200 3 -11 -6 -53 -20 -94 -36 -106 -36 -105 33 -96 31 3 71 10 87 16 17 5 52
16 79 24 80 26 134 30 154 13 9 -9 22 -17 28 -19 5 -2 86 -53 180 -112 93 -59
178 -113 189 -120 10 -7 64 -40 118 -75 54 -35 109 -68 122 -74 32 -15 35 -25
46 -168 23 -297 6 -772 -37 -1010 -8 -47 -17 -101 -20 -120 -22 -177 -154
-634 -257 -890 -86 -216 -214 -472 -324 -650 -93 -152 -108 -175 -114 -180 -4
-3 -19 -25 -35 -50 -115 -181 -348 -457 -553 -658 -203 -199 -561 -488 -591
-476 -8 3 -11 2 -8 -2 22 -22 -313 -227 -594 -363 -302 -146 -529 -228 -918
-331 -81 -21 -282 -61 -380 -74 -272 -38 -320 -41 -685 -41 -330 0 -389 3
-540 23 -93 13 -201 30 -240 38 -38 8 -82 17 -96 19 -46 7 -263 57 -304 70
-40 13 -151 46 -170 51 -28 7 -302 105 -318 114 -9 6 -52 24 -95 41 -99 39
-419 199 -497 248 -33 21 -109 69 -170 106 -100 63 -399 280 -443 322 -10 10
-52 47 -94 81 -126 107 -445 437 -506 523 -7 11 -29 36 -48 57 -19 20 -34 40
-34 44 0 4 -6 13 -13 20 -54 57 -245 340 -331 491 -88 155 -235 459 -291 600
-156 399 -248 782 -301 1262 -10 97 -17 532 -9 659 l7 128 225 109 c124 60
226 109 228 109 1 0 109 52 240 115 130 63 238 115 240 115 2 0 119 56 260
125 142 69 259 125 262 125 2 0 40 18 85 40 45 23 128 61 185 86 97 42 107 45
136 33 92 -36 475 -229 490 -247 18 -20 17 -24 -18 -144 -49 -163 -85 -296
-85 -314 0 -8 4 -14 8 -14 9 0 200 119 392 244 471 308 486 318 685 443 66 41
76 45 88 30 7 -8 35 -41 63 -74 29 -32 75 -86 104 -121 28 -35 58 -66 66 -69
7 -3 28 7 46 22 43 36 265 244 442 415 77 74 148 143 158 153 10 10 24 15 30
11 6 -4 8 -3 5 4 -4 5 14 30 39 54 26 23 67 63 93 88 369 353 441 420 456 420
6 0 50 -28 97 -62z"/>
</g>
</svg>
